<svg width="1302" height="931" viewBox="0 0 1302 931" fill="none" xmlns="http://www.w3.org/2000/svg">
<rect width="1302" height="931" fill="black"/>
<path d="M318.089 469.146H609.493L751.279 320.765" stroke="#EA981D" stroke-width="6.5947"/>
<path d="M652.358 328.184V283.67H801.151L1048.04 568.067" stroke="#EA981D" stroke-width="6.5947"/>
<rect x="753.34" y="372.287" width="20.6084" height="20.6084" stroke="#EA981D" stroke-width="4.12169"/>
<rect x="792.083" y="406.909" width="20.6084" height="20.6084" stroke="#EA981D" stroke-width="4.12169"/>
<rect x="753.34" y="406.909" width="20.6084" height="20.6084" stroke="#EA981D" stroke-width="4.12169"/>
<rect x="792.083" y="372.287" width="20.6084" height="20.6084" stroke="#EA981D" stroke-width="4.12169"/>
<path d="M566.627 419.686H400.111L556.323 261.001" stroke="#EA981D" stroke-width="6.5947"/>
<path d="M588.06 322.414V200H635.047V361.158" stroke="#EA981D" stroke-width="6.5947"/>
<circle cx="1054.64" cy="576.31" r="9.89205" stroke="#EA981D" stroke-width="4.94603"/>
<circle cx="652.77" cy="335.191" r="7.83121" stroke="#EA981D" stroke-width="4.94603"/>
<circle cx="635.459" cy="372.287" r="11.9529" stroke="#EA981D" stroke-width="4.94603"/>
<circle cx="757.873" cy="312.522" r="9.89205" stroke="#EA981D" stroke-width="4.94603"/>
<circle cx="588.472" cy="335.191" r="11.9529" stroke="#EA981D" stroke-width="4.94603"/>
<path d="M573.222 252.345C573.222 257.809 568.793 262.237 563.33 262.237C557.866 262.237 553.438 257.809 553.438 252.345C553.438 246.882 557.866 242.453 563.33 242.453C568.793 242.453 573.222 246.882 573.222 252.345Z" stroke="#EA981D" stroke-width="4.94603"/>
<circle cx="573.634" cy="417.625" r="7.83121" stroke="#EA981D" stroke-width="4.94603"/>
<circle cx="306.961" cy="469.146" r="9.89205" stroke="#EA981D" stroke-width="4.94603"/>
<g filter="url(#filter0_d_1_34)">
<g filter="url(#filter1_d_1_34)">
<path d="M235.771 559.228V505.811H242.893V552.996H265.744V559.228H235.771ZM278.67 511.746C277.433 511.746 276.37 511.35 275.48 510.559C274.639 509.718 274.218 508.63 274.218 507.294C274.218 505.959 274.639 504.896 275.48 504.104C276.37 503.263 277.433 502.843 278.67 502.843C279.956 502.843 281.019 503.263 281.86 504.104C282.701 504.896 283.121 505.959 283.121 507.294C283.121 508.63 282.701 509.718 281.86 510.559C281.019 511.35 279.956 511.746 278.67 511.746ZM275.257 559.228V531.629C275.257 530.64 275.232 529.354 275.183 527.771C275.183 526.188 275.133 524.63 275.034 523.097C274.985 521.564 274.861 520.352 274.664 519.462L274.812 518.868H282.083V559.228H275.257ZM310.288 560.118C307.766 560.118 305.219 559.846 302.647 559.302C300.075 558.807 297.824 558.189 295.895 557.447L295.747 556.854C295.945 555.963 296.068 554.752 296.118 553.218C296.217 551.685 296.266 550.127 296.266 548.544C296.316 546.962 296.34 545.676 296.34 544.686V515.604C296.34 514.862 296.34 513.947 296.34 512.859C296.34 511.771 296.316 510.633 296.266 509.446C296.217 508.209 296.143 507.072 296.044 506.033C295.994 504.945 295.895 504.079 295.747 503.436L295.895 502.843H303.166V548.247C303.166 549.731 303.092 551.017 302.943 552.105C302.844 553.144 302.721 554.034 302.572 554.776L301.385 552.699C302.572 553.095 303.933 553.441 305.466 553.738C306.999 554.034 308.607 554.183 310.288 554.183C315.036 554.183 318.548 552.872 320.823 550.251C323.098 547.629 324.236 543.796 324.236 538.751C324.236 534.151 323.049 530.541 320.675 527.919C318.35 525.248 314.888 523.913 310.288 523.913C309.002 523.913 307.889 523.987 306.95 524.136C306.01 524.235 305.07 524.408 304.13 524.655C303.191 524.902 302.078 525.248 300.792 525.694V520.055C302.523 519.313 304.254 518.794 305.985 518.497C307.766 518.151 309.398 517.978 310.882 517.978C315.135 517.978 318.771 518.819 321.788 520.5C324.854 522.182 327.179 524.581 328.762 527.697C330.394 530.813 331.21 534.498 331.21 538.751C331.21 543.203 330.369 547.036 328.687 550.251C327.006 553.416 324.607 555.864 321.491 557.595C318.375 559.277 314.641 560.118 310.288 560.118ZM361.485 559.821C357.726 559.821 354.437 559.376 351.618 558.486C348.848 557.546 346.523 556.186 344.644 554.405C342.814 552.625 341.453 550.448 340.563 547.877C339.673 545.255 339.228 542.263 339.228 538.899C339.228 534.695 339.994 531.035 341.528 527.919C343.11 524.754 345.287 522.306 348.056 520.574C350.876 518.843 354.165 517.978 357.924 517.978C362.276 517.978 365.788 518.868 368.459 520.649C371.13 522.429 373.034 524.927 374.171 528.142C375.358 531.357 375.878 535.091 375.729 539.345L375.655 541.422H343.976V535.784H368.607V535.19C368.607 531.48 367.717 528.686 365.936 526.806C364.156 524.878 361.485 523.913 357.924 523.913C355.846 523.913 353.917 524.358 352.137 525.248C350.356 526.139 348.922 527.647 347.834 529.774C346.746 531.901 346.202 534.794 346.202 538.454V538.899C346.202 542.708 346.869 545.7 348.205 547.877C349.54 550.053 351.37 551.611 353.695 552.551C356.069 553.441 358.765 553.886 361.782 553.886C364.304 553.886 366.456 553.639 368.236 553.144C370.017 552.649 371.426 552.105 372.465 551.512H373.059V557.595C371.871 558.189 370.313 558.708 368.385 559.153C366.456 559.599 364.156 559.821 361.485 559.821ZM386.76 559.228V533.706C386.76 532.717 386.735 531.431 386.686 529.848C386.686 528.266 386.636 526.708 386.537 525.174C386.488 523.641 386.364 522.429 386.166 521.539L386.315 520.945C387.601 520.451 389.184 520.03 391.063 519.684C392.992 519.338 394.896 519.066 396.776 518.868C398.705 518.67 400.312 518.571 401.598 518.571C402.785 518.571 403.75 518.596 404.491 518.646C405.233 518.695 405.852 518.769 406.346 518.868V524.803H405.753C405.11 524.704 404.343 524.63 403.453 524.581C402.563 524.531 401.746 524.507 401.005 524.507C399.471 524.507 397.864 524.63 396.182 524.878C394.501 525.125 393.041 525.372 391.805 525.619L393.14 523.765C393.437 525.397 393.585 527.425 393.585 529.848V559.228H386.76ZM431.883 559.821C428.421 559.821 425.651 559.277 423.573 558.189C421.496 557.051 419.988 555.493 419.048 553.515C418.108 551.487 417.638 549.138 417.638 546.467V507.888H424.464V545.873C424.464 548.693 425.082 550.745 426.319 552.031C427.555 553.268 429.509 553.886 432.18 553.886C433.218 553.886 434.232 553.787 435.221 553.589C436.211 553.342 437.076 553.045 437.818 552.699H438.412V558.486C437.67 558.832 436.73 559.129 435.592 559.376C434.455 559.673 433.218 559.821 431.883 559.821ZM411.406 524.803V518.868H436.037V524.803H411.406ZM449.711 576.44V575.55L458.91 552.996L471.968 518.868H478.793V519.758L456.239 576.44H449.711ZM457.13 560.711L440.808 519.758V518.868H447.93L461.062 553.144L457.13 560.711ZM539.035 559.228V505.811H546.157V559.228H539.035ZM505.798 559.228V505.811H512.92V559.228H505.798ZM509.953 534.596V528.364H542.003V534.596H509.953ZM563.839 511.746C562.603 511.746 561.539 511.35 560.649 510.559C559.808 509.718 559.388 508.63 559.388 507.294C559.388 505.959 559.808 504.896 560.649 504.104C561.539 503.263 562.603 502.843 563.839 502.843C565.125 502.843 566.188 503.263 567.029 504.104C567.87 504.896 568.291 505.959 568.291 507.294C568.291 508.63 567.87 509.718 567.029 510.559C566.188 511.35 565.125 511.746 563.839 511.746ZM560.426 559.228V531.629C560.426 530.64 560.402 529.354 560.352 527.771C560.352 526.188 560.303 524.63 560.204 523.097C560.154 521.564 560.031 520.352 559.833 519.462L559.981 518.868H567.252V559.228H560.426ZM581.51 559.228V515.604C581.51 514.615 581.485 513.329 581.436 511.746C581.436 510.163 581.386 508.605 581.287 507.072C581.238 505.539 581.114 504.327 580.916 503.436L581.065 502.843H588.335V559.228H581.51ZM602.593 559.228V515.604C602.593 514.615 602.568 513.329 602.519 511.746C602.519 510.163 602.469 508.605 602.371 507.072C602.321 505.539 602.197 504.327 602 503.436L602.148 502.843H609.419V559.228H602.593ZM620.412 551.215H621.006C622.786 552.006 624.789 552.649 627.015 553.144C629.29 553.639 631.541 553.886 633.766 553.886C634.459 553.886 635.374 553.861 636.511 553.812C637.699 553.713 638.886 553.49 640.073 553.144C641.309 552.798 642.348 552.204 643.189 551.363C644.029 550.473 644.45 549.237 644.45 547.654C644.45 545.873 643.733 544.612 642.298 543.87C640.864 543.128 638.886 542.56 636.363 542.164L632.802 541.57C628.598 540.878 625.482 539.691 623.454 538.009C621.426 536.278 620.412 533.855 620.412 530.739C620.412 528.562 620.981 526.534 622.119 524.655C623.306 522.726 625.185 521.193 627.757 520.055C630.378 518.868 633.865 518.275 638.218 518.275C640.147 518.275 642.002 518.448 643.782 518.794C645.612 519.091 647.121 519.462 648.308 519.907V525.99H647.714C646.082 525.397 644.524 524.952 643.04 524.655C641.556 524.358 639.85 524.21 637.921 524.21C634.508 524.21 631.813 524.704 629.834 525.694C627.905 526.633 626.941 528.241 626.941 530.516C626.941 532.247 627.633 533.484 629.018 534.226C630.453 534.967 632.431 535.536 634.953 535.932L638.515 536.525C640.79 536.872 642.867 537.49 644.747 538.38C646.626 539.27 648.135 540.482 649.272 542.015C650.41 543.499 650.979 545.379 650.979 547.654C650.979 551.66 649.544 554.702 646.676 556.779C643.807 558.807 639.405 559.821 633.47 559.821C630.947 559.821 628.573 559.623 626.347 559.228C624.171 558.832 622.193 558.337 620.412 557.744V551.215ZM677.38 550.473H677.973C679.161 551.116 680.496 551.685 681.98 552.18C683.513 552.625 685.17 552.971 686.951 553.218C688.781 553.466 690.734 553.589 692.812 553.589C695.186 553.589 697.288 553.367 699.118 552.921C700.997 552.427 702.456 551.636 703.495 550.547C704.583 549.41 705.127 547.852 705.127 545.873C705.127 543.499 704.435 541.793 703.05 540.754C701.714 539.716 699.687 538.949 696.966 538.454L690.437 537.267C687.964 536.822 685.689 536.031 683.612 534.893C681.535 533.706 679.878 532.074 678.641 529.997C677.405 527.919 676.786 525.298 676.786 522.132C676.786 518.176 677.701 514.936 679.531 512.414C681.411 509.842 684.008 507.962 687.321 506.775C690.685 505.539 694.592 504.92 699.044 504.92C701.121 504.92 703.173 505.118 705.201 505.514C707.279 505.91 708.985 506.404 710.32 506.998V513.823H709.727C708.54 513.23 707.031 512.686 705.201 512.191C703.421 511.696 701.269 511.449 698.747 511.449C695.977 511.449 693.455 511.795 691.179 512.488C688.954 513.18 687.173 514.293 685.838 515.826C684.552 517.36 683.909 519.363 683.909 521.836C683.909 524.952 684.725 527.128 686.357 528.364C687.989 529.601 690.24 530.491 693.108 531.035L699.637 532.222C702.16 532.668 704.361 533.434 706.24 534.522C708.12 535.61 709.579 537.069 710.617 538.899C711.705 540.68 712.249 542.906 712.249 545.577C712.249 548 711.78 550.127 710.84 551.957C709.9 553.787 708.565 555.32 706.834 556.557C705.152 557.744 703.124 558.634 700.75 559.228C698.376 559.821 695.73 560.118 692.812 560.118C690.734 560.118 688.756 559.994 686.876 559.747C685.046 559.5 683.315 559.178 681.683 558.783C680.1 558.387 678.666 557.942 677.38 557.447V550.473ZM725.751 576.44V575.55L734.951 552.996L748.008 518.868H754.834V519.758L732.28 576.44H725.751ZM733.17 560.711L716.848 519.758V518.868H723.97L737.102 553.144L733.17 560.711ZM759.592 551.215H760.185C761.966 552.006 763.969 552.649 766.195 553.144C768.47 553.639 770.72 553.886 772.946 553.886C773.638 553.886 774.553 553.861 775.691 553.812C776.878 553.713 778.065 553.49 779.252 553.144C780.489 552.798 781.527 552.204 782.368 551.363C783.209 550.473 783.629 549.237 783.629 547.654C783.629 545.873 782.912 544.612 781.478 543.87C780.043 543.128 778.065 542.56 775.543 542.164L771.981 541.57C767.777 540.878 764.661 539.691 762.633 538.009C760.606 536.278 759.592 533.855 759.592 530.739C759.592 528.562 760.16 526.534 761.298 524.655C762.485 522.726 764.365 521.193 766.936 520.055C769.558 518.868 773.045 518.275 777.397 518.275C779.326 518.275 781.181 518.448 782.962 518.794C784.792 519.091 786.3 519.462 787.487 519.907V525.99H786.894C785.261 525.397 783.703 524.952 782.22 524.655C780.736 524.358 779.029 524.21 777.101 524.21C773.688 524.21 770.992 524.704 769.014 525.694C767.085 526.633 766.12 528.241 766.12 530.516C766.12 532.247 766.813 533.484 768.198 534.226C769.632 534.967 771.61 535.536 774.133 535.932L777.694 536.525C779.969 536.872 782.047 537.49 783.926 538.38C785.806 539.27 787.314 540.482 788.452 542.015C789.589 543.499 790.158 545.379 790.158 547.654C790.158 551.66 788.724 554.702 785.855 556.779C782.986 558.807 778.584 559.821 772.649 559.821C770.127 559.821 767.753 559.623 765.527 559.228C763.351 558.832 761.372 558.337 759.592 557.744V551.215ZM813.63 559.821C810.168 559.821 807.398 559.277 805.321 558.189C803.243 557.051 801.735 555.493 800.795 553.515C799.855 551.487 799.385 549.138 799.385 546.467V507.888H806.211V545.873C806.211 548.693 806.829 550.745 808.066 552.031C809.302 553.268 811.256 553.886 813.927 553.886C814.965 553.886 815.979 553.787 816.969 553.589C817.958 553.342 818.823 553.045 819.565 552.699H820.159V558.486C819.417 558.832 818.477 559.129 817.34 559.376C816.202 559.673 814.965 559.821 813.63 559.821ZM793.153 524.803V518.868H817.785V524.803H793.153ZM847.78 559.821C844.021 559.821 840.732 559.376 837.912 558.486C835.143 557.546 832.818 556.186 830.938 554.405C829.108 552.625 827.748 550.448 826.858 547.877C825.968 545.255 825.523 542.263 825.523 538.899C825.523 534.695 826.289 531.035 827.822 527.919C829.405 524.754 831.581 522.306 834.351 520.574C837.17 518.843 840.46 517.978 844.218 517.978C848.571 517.978 852.083 518.868 854.754 520.649C857.424 522.429 859.329 524.927 860.466 528.142C861.653 531.357 862.173 535.091 862.024 539.345L861.95 541.422H830.271V535.784H854.902V535.19C854.902 531.48 854.012 528.686 852.231 526.806C850.45 524.878 847.78 523.913 844.218 523.913C842.141 523.913 840.212 524.358 838.432 525.248C836.651 526.139 835.217 527.647 834.129 529.774C833.04 531.901 832.496 534.794 832.496 538.454V538.899C832.496 542.708 833.164 545.7 834.5 547.877C835.835 550.053 837.665 551.611 839.99 552.551C842.364 553.441 845.059 553.886 848.076 553.886C850.599 553.886 852.75 553.639 854.531 553.144C856.312 552.649 857.721 552.105 858.76 551.512H859.353V557.595C858.166 558.189 856.608 558.708 854.679 559.153C852.75 559.599 850.45 559.821 847.78 559.821ZM873.055 559.228V533.706C873.055 532.717 873.03 531.431 872.981 529.848C872.981 528.266 872.931 526.708 872.832 525.174C872.783 523.641 872.659 522.429 872.461 521.539L872.61 520.945C873.896 520.451 875.503 519.981 877.432 519.536C879.361 519.091 881.339 518.72 883.367 518.423C885.395 518.126 887.2 517.978 888.783 517.978C890.959 517.978 893.037 518.25 895.015 518.794C896.994 519.289 898.749 520.204 900.283 521.539C901.865 522.825 903.102 524.605 903.992 526.881C904.932 529.106 905.402 531.975 905.402 535.487V559.228H898.576V536.08C898.576 532.816 898.106 530.318 897.167 528.587C896.276 526.806 895.015 525.595 893.383 524.952C891.8 524.259 889.97 523.913 887.893 523.913C886.31 523.913 884.604 524.086 882.774 524.432C880.993 524.779 879.435 525.199 878.1 525.694L879.287 523.616C879.485 524.358 879.633 525.298 879.732 526.436C879.831 527.524 879.88 528.661 879.88 529.848V559.228H873.055ZM923.207 559.228V536.08C923.207 532.816 922.787 530.318 921.946 528.587C921.105 526.806 919.844 525.595 918.163 524.952C916.481 524.259 914.404 523.913 911.931 523.913C910.496 523.913 909.012 524.086 907.479 524.432C905.995 524.779 904.413 525.298 902.731 525.99L898.576 521.242C901.049 520.253 903.498 519.462 905.921 518.868C908.394 518.275 910.694 517.978 912.821 517.978C915.294 517.978 917.569 518.25 919.646 518.794C921.724 519.289 923.529 520.204 925.062 521.539C926.645 522.825 927.857 524.605 928.698 526.881C929.588 529.106 930.033 531.975 930.033 535.487V559.228H923.207ZM940.72 551.215H941.314C943.095 552.006 945.098 552.649 947.323 553.144C949.599 553.639 951.849 553.886 954.075 553.886C954.767 553.886 955.682 553.861 956.82 553.812C958.007 553.713 959.194 553.49 960.381 553.144C961.617 552.798 962.656 552.204 963.497 551.363C964.338 550.473 964.758 549.237 964.758 547.654C964.758 545.873 964.041 544.612 962.607 543.87C961.172 543.128 959.194 542.56 956.671 542.164L953.11 541.57C948.906 540.878 945.79 539.691 943.762 538.009C941.734 536.278 940.72 533.855 940.72 530.739C940.72 528.562 941.289 526.534 942.427 524.655C943.614 522.726 945.493 521.193 948.065 520.055C950.687 518.868 954.174 518.275 958.526 518.275C960.455 518.275 962.31 518.448 964.09 518.794C965.92 519.091 967.429 519.462 968.616 519.907V525.99H968.023C966.39 525.397 964.832 524.952 963.349 524.655C961.865 524.358 960.158 524.21 958.229 524.21C954.817 524.21 952.121 524.704 950.143 525.694C948.214 526.633 947.249 528.241 947.249 530.516C947.249 532.247 947.942 533.484 949.327 534.226C950.761 534.967 952.739 535.536 955.262 535.932L958.823 536.525C961.098 536.872 963.175 537.49 965.055 538.38C966.934 539.27 968.443 540.482 969.581 542.015C970.718 543.499 971.287 545.379 971.287 547.654C971.287 551.66 969.853 554.702 966.984 556.779C964.115 558.807 959.713 559.821 953.778 559.821C951.255 559.821 948.881 559.623 946.656 559.228C944.479 558.832 942.501 558.337 940.72 557.744V551.215Z" fill="#EA981D"/>
</g>
<path d="M245.548 594.446H551.377" stroke="#EA981D" stroke-width="3.29735"/>
<path d="M589.511 612.891V577.28H594.259V608.736H609.493V612.891H589.511ZM637.894 581.236C637.07 581.236 636.361 580.973 635.767 580.445C635.207 579.885 634.926 579.159 634.926 578.269C634.926 577.379 635.207 576.67 635.767 576.142C636.361 575.582 637.07 575.301 637.894 575.301C638.751 575.301 639.46 575.582 640.021 576.142C640.581 576.67 640.862 577.379 640.862 578.269C640.862 579.159 640.581 579.885 640.021 580.445C639.46 580.973 638.751 581.236 637.894 581.236ZM635.619 612.891V594.492C635.619 593.832 635.602 592.975 635.569 591.92C635.569 590.865 635.536 589.826 635.47 588.804C635.438 587.782 635.355 586.974 635.223 586.38L635.322 585.985H640.169V612.891H635.619ZM669.459 612.891V595.877C669.459 595.217 669.442 594.36 669.409 593.305C669.409 592.25 669.376 591.211 669.31 590.189C669.277 589.167 669.195 588.359 669.063 587.765L669.162 587.37C670.019 587.04 671.091 586.727 672.377 586.43C673.663 586.133 674.982 585.886 676.334 585.688C677.685 585.49 678.889 585.391 679.944 585.391C681.395 585.391 682.78 585.573 684.099 585.935C685.418 586.265 686.588 586.875 687.61 587.765C688.666 588.623 689.49 589.81 690.083 591.326C690.71 592.81 691.023 594.723 691.023 597.064V612.891H686.473V597.459C686.473 595.283 686.16 593.618 685.533 592.464C684.94 591.277 684.099 590.469 683.011 590.04C681.956 589.579 680.735 589.348 679.351 589.348C678.295 589.348 677.158 589.463 675.938 589.694C674.751 589.925 673.712 590.205 672.822 590.535L673.613 589.15C673.745 589.645 673.844 590.271 673.91 591.03C673.976 591.755 674.009 592.513 674.009 593.305V612.891H669.459ZM702.894 612.891V597.459C702.894 595.283 702.613 593.618 702.053 592.464C701.492 591.277 700.651 590.469 699.53 590.04C698.409 589.579 697.024 589.348 695.376 589.348C694.419 589.348 693.43 589.463 692.408 589.694C691.419 589.925 690.364 590.271 689.243 590.733L686.473 587.567C688.122 586.908 689.754 586.38 691.369 585.985C693.018 585.589 694.551 585.391 695.969 585.391C697.618 585.391 699.135 585.573 700.52 585.935C701.904 586.265 703.108 586.875 704.13 587.765C705.185 588.623 705.993 589.81 706.554 591.326C707.147 592.81 707.444 594.723 707.444 597.064V612.891H702.894ZM738.805 581.236C737.98 581.236 737.271 580.973 736.678 580.445C736.117 579.885 735.837 579.159 735.837 578.269C735.837 577.379 736.117 576.67 736.678 576.142C737.271 575.582 737.98 575.301 738.805 575.301C739.662 575.301 740.371 575.582 740.931 576.142C741.492 576.67 741.772 577.379 741.772 578.269C741.772 579.159 741.492 579.885 740.931 580.445C740.371 580.973 739.662 581.236 738.805 581.236ZM736.529 612.891V594.492C736.529 593.832 736.513 592.975 736.48 591.92C736.48 590.865 736.447 589.826 736.381 588.804C736.348 587.782 736.266 586.974 736.134 586.38L736.233 585.985H741.08V612.891H736.529ZM780.261 613.287C777.953 613.287 776.106 612.924 774.722 612.199C773.337 611.44 772.331 610.402 771.704 609.083C771.078 607.731 770.765 606.164 770.765 604.384V578.665H775.315V603.988C775.315 605.868 775.727 607.236 776.552 608.093C777.376 608.918 778.678 609.33 780.459 609.33C781.151 609.33 781.827 609.264 782.487 609.132C783.146 608.967 783.723 608.769 784.218 608.539H784.614V612.396C784.119 612.627 783.493 612.825 782.734 612.99C781.976 613.188 781.151 613.287 780.261 613.287ZM766.61 589.942V585.985H783.031V589.942H766.61ZM822.812 613.287C820.306 613.287 818.113 612.99 816.233 612.396C814.387 611.77 812.837 610.863 811.584 609.676C810.364 608.489 809.457 607.038 808.864 605.324C808.27 603.576 807.974 601.581 807.974 599.339C807.974 596.536 808.485 594.096 809.507 592.019C810.562 589.909 812.013 588.276 813.859 587.122C815.739 585.968 817.932 585.391 820.438 585.391C823.339 585.391 825.68 585.985 827.461 587.172C829.241 588.359 830.511 590.024 831.269 592.167C832.061 594.31 832.407 596.8 832.308 599.636L832.259 601.021H811.139V597.262H827.56V596.866C827.56 594.393 826.966 592.53 825.779 591.277C824.592 589.991 822.812 589.348 820.438 589.348C819.053 589.348 817.767 589.645 816.58 590.238C815.393 590.832 814.436 591.837 813.711 593.255C812.986 594.673 812.623 596.602 812.623 599.042V599.339C812.623 601.878 813.068 603.873 813.958 605.324C814.849 606.774 816.069 607.813 817.618 608.44C819.201 609.033 820.998 609.33 823.009 609.33C824.691 609.33 826.125 609.165 827.313 608.835C828.5 608.506 829.439 608.143 830.132 607.747H830.527V611.803C829.736 612.199 828.697 612.545 827.411 612.842C826.125 613.138 824.592 613.287 822.812 613.287ZM871.312 613.485C868.344 613.485 865.822 612.924 863.744 611.803C861.7 610.649 860.134 609.017 859.046 606.906C857.99 604.796 857.463 602.274 857.463 599.339C857.463 596.404 858.056 593.898 859.243 591.821C860.43 589.744 862.096 588.161 864.239 587.073C866.382 585.952 868.872 585.391 871.707 585.391C872.861 585.391 873.884 585.474 874.774 585.638C875.697 585.803 876.439 586.018 877 586.281L876.802 590.238C876.439 590.073 875.846 589.892 875.021 589.694C874.23 589.463 873.224 589.348 872.004 589.348C868.806 589.348 866.349 590.205 864.635 591.92C862.953 593.635 862.112 596.108 862.112 599.339C862.112 601.68 862.475 603.609 863.2 605.126C863.959 606.61 865.047 607.714 866.465 608.44C867.882 609.165 869.63 609.528 871.707 609.528C872.861 609.528 873.9 609.429 874.823 609.231C875.78 609 876.62 608.72 877.346 608.39L876.554 609.775C876.423 609.215 876.324 608.555 876.258 607.797C876.192 607.005 876.159 606.197 876.159 605.373V583.808C876.159 583.149 876.142 582.292 876.109 581.236C876.109 580.181 876.076 579.143 876.01 578.121C875.977 577.098 875.895 576.29 875.763 575.697L875.862 575.301H880.709V602.999C880.709 603.658 880.709 604.516 880.709 605.571C880.742 606.626 880.775 607.665 880.808 608.687C880.874 609.709 880.973 610.517 881.105 611.11L881.006 611.506C879.621 612.034 878.121 612.495 876.505 612.891C874.922 613.287 873.191 613.485 871.312 613.485Z" fill="#EA981D"/>
</g>
<defs>
<filter id="filter0_d_1_34" x="227.771" y="498.843" width="751.516" height="126.642" filterUnits="userSpaceOnUse" color-interpolation-filters="sRGB">
<feFlood flood-opacity="0" result="BackgroundImageFix"/>
<feColorMatrix in="SourceAlpha" type="matrix" values="0 0 0 0 0 0 0 0 0 0 0 0 0 0 0 0 0 0 127 0" result="hardAlpha"/>
<feOffset dy="4"/>
<feGaussianBlur stdDeviation="4"/>
<feComposite in2="hardAlpha" operator="out"/>
<feColorMatrix type="matrix" values="0 0 0 0 1 0 0 0 0 1 0 0 0 0 1 0 0 0 0.25 0"/>
<feBlend mode="normal" in2="BackgroundImageFix" result="effect1_dropShadow_1_34"/>
<feBlend mode="normal" in="SourceGraphic" in2="effect1_dropShadow_1_34" result="shape"/>
</filter>
<filter id="filter1_d_1_34" x="229.176" y="499.546" width="748.705" height="86.7863" filterUnits="userSpaceOnUse" color-interpolation-filters="sRGB">
<feFlood flood-opacity="0" result="BackgroundImageFix"/>
<feColorMatrix in="SourceAlpha" type="matrix" values="0 0 0 0 0 0 0 0 0 0 0 0 0 0 0 0 0 0 127 0" result="hardAlpha"/>
<feOffset dy="3.29735"/>
<feGaussianBlur stdDeviation="3.29735"/>
<feComposite in2="hardAlpha" operator="out"/>
<feColorMatrix type="matrix" values="0 0 0 0 0 0 0 0 0 0 0 0 0 0 0 0 0 0 0.2 0"/>
<feBlend mode="normal" in2="BackgroundImageFix" result="effect1_dropShadow_1_34"/>
<feBlend mode="normal" in="SourceGraphic" in2="effect1_dropShadow_1_34" result="shape"/>
</filter>
</defs>
</svg>
